<svg width="116" height="37" viewBox="0 0 116 37" fill="none" xmlns="http://www.w3.org/2000/svg">
<g clip-path="url(#clip0)">
<path d="M10.215 8.44971H0V18.5889H10.215V8.44971Z" fill="white"/>
<path d="M9.80481 8.8584H0.407227V18.1912H9.80481V8.8584Z" fill="white"/>
<path d="M8.18621 11.1163C6.68672 13.3689 4.48889 16.3472 0.407227 16.0999V8.8584H9.57203C9.57203 8.8584 9.03611 9.84759 8.18621 11.1163Z" fill="#0C72BA"/>
<path d="M0.407227 16.6486V18.1915H9.80481V8.97705C9.80481 8.97705 6.8004 17.2346 0.407227 16.6486Z" fill="#E4A924"/>
<path d="M3.59604 11.3291C2.32932 11.3291 1.30078 12.3505 1.30078 13.6085C1.30078 14.6461 1.9991 15.517 2.96268 15.7912C4.1049 15.431 5.05765 14.7751 5.85882 14.0117C5.88589 13.8827 5.89672 13.7483 5.89672 13.6032C5.89672 12.3452 4.87359 11.3291 3.59604 11.3291Z" fill="#2683C6"/>
<path d="M5.32872 13.6056C5.32872 14.5464 4.55461 15.3098 3.60186 15.3098C2.64911 15.3098 1.875 14.5464 1.875 13.6056C1.875 12.6648 2.64911 11.9014 3.60186 11.9014C4.55461 11.9014 5.32872 12.6648 5.32872 13.6056Z" fill="#7CA6D6"/>
<path d="M4.75229 13.606C4.75229 14.235 4.23261 14.7404 3.59925 14.7404C2.96589 14.7404 2.45703 14.2296 2.45703 13.606C2.45703 12.977 2.96589 12.4717 3.59925 12.4717C4.23261 12.4717 4.75229 12.977 4.75229 13.606Z" fill="#ADC4E6"/>
<path d="M4.174 13.604C4.174 13.9158 3.91416 14.1739 3.60018 14.1739C3.28621 14.1739 3.02637 13.9212 3.02637 13.604C3.02637 13.2922 3.28621 13.0342 3.60018 13.0342C3.91416 13.0396 4.174 13.2922 4.174 13.604Z" fill="#D4E4F4"/>
<path d="M19.2854 11.9496C18.9985 12.0464 18.69 12.1646 18.3597 12.2937C17.8725 12.5141 16.9902 12.9065 15.7072 13.4764L15.4095 13.6054C16.6383 14.0463 17.8076 14.6968 18.9227 15.5515C19.0689 15.6644 19.188 15.7558 19.2854 15.8311V11.9496ZM19.2205 10.2669H12.9464V8.8584H21.9163V10.2669H20.8228V18.1804H19.4478C19.3179 17.7772 18.6412 17.1536 17.4286 16.2988C16.9306 15.9494 16.2485 15.6053 15.377 15.2774C14.4513 14.9225 13.7097 14.7505 13.1575 14.7505L12.7461 13.17L19.2205 10.2669Z" fill="#0C72BA"/>
<path d="M19.3799 19.7698C18.9631 19.1569 18.4759 18.8505 17.9237 18.8505C17.6368 18.8505 17.2417 18.9312 16.7274 19.0978C16.2185 19.2591 15.8234 19.3451 15.5365 19.3451C14.7786 19.3451 14.0315 19.0494 13.3007 18.4581C13.0517 18.2538 12.7161 17.8452 12.3047 17.2431L13.1167 16.0711C13.501 16.7324 13.8313 17.1624 14.1073 17.356C14.5242 17.6517 14.9735 17.8022 15.4444 17.8022C15.6556 17.8022 15.9208 17.7538 16.2402 17.6517C16.657 17.5334 16.9223 17.4581 17.036 17.4366C17.2417 17.4044 17.4474 17.3882 17.6477 17.3882C18.2648 17.3882 18.8115 17.5549 19.2825 17.899V15.2002H20.8253V19.7752H19.3799V19.7698Z" fill="#0C72BA"/>
<path d="M24.5431 10.2669C24.0397 10.9604 23.7906 11.5195 23.7906 11.9711C23.7906 12.1808 24.0505 13.0141 24.5648 14.471C24.8354 15.2075 24.9708 15.815 24.9708 16.2988C24.9708 17.2181 24.4673 17.8632 23.4442 18.2234C23.1356 18.3471 22.5835 18.4438 21.7877 18.5191L21.9988 17.1536C22.9299 16.9547 23.3955 16.6267 23.3955 16.1644C23.3955 15.7397 23.1952 15.0785 22.8054 14.1914C22.4102 13.299 22.2154 12.6485 22.2154 12.2292C22.2154 11.6916 22.4427 11.0411 22.8974 10.2669H21.2734V8.8584H25.6312V10.2669H24.5431Z" fill="#0C72BA"/>
<path d="M27.8855 10.2669V18.175H26.3102V10.2669H25.168V8.8584H28.9302V10.2669H27.8855Z" fill="#0C72BA"/>
<path d="M33.152 15.7641V12.1246C33.152 12.1246 31.1004 13.5116 30.8568 13.6567C31.3331 13.8879 32.8759 15.1674 33.152 15.7641ZM35.496 13.9686C35.5285 13.9686 35.561 13.9686 35.5934 13.9686C36.3784 13.9686 36.7681 13.6836 36.7681 13.1138C36.7681 12.4364 36.0915 12.0063 34.7327 11.8289V18.1726H33.3523C32.589 16.5114 30.0014 14.775 28.9946 14.7104L28.5831 13.1299L33.1574 10.2591H28.2529V8.85059H38.1973V10.2591H34.7327C35.3823 10.2914 36.0644 10.5387 36.7681 10.9257C37.7642 11.4741 38.2622 12.2214 38.2622 13.1622C38.2622 13.7105 38.0944 14.1836 37.7642 14.5868C37.434 14.99 37.0009 15.248 36.465 15.3771C36.1023 15.4631 35.7829 15.4953 35.496 15.4846V13.9686Z" fill="#0C72BA"/>
<path d="M47.924 11.9496C47.6371 12.0464 47.3231 12.1646 46.9929 12.2937C46.5057 12.5141 45.6233 12.9065 44.3458 13.4764L44.0426 13.6054C45.2714 14.0463 46.4407 14.6968 47.5559 15.5515C47.702 15.6644 47.8211 15.7558 47.924 15.8311V11.9496ZM47.8536 10.2669H41.3359V8.8584H50.5549V10.2669H49.4614V18.1804H48.0864C47.9565 17.7772 47.2798 17.1536 46.0672 16.2988C45.5692 15.9494 44.8871 15.6053 44.0101 15.2774C43.0845 14.9225 42.3428 14.7505 41.7907 14.7505L41.3792 13.17L47.8536 10.2669Z" fill="#0C72BA"/>
<path d="M53.1657 10.2669C52.6677 10.9604 52.4132 11.5195 52.4132 11.9711C52.4132 12.1808 52.6731 13.0141 53.1819 14.471C53.4526 15.2075 53.5879 15.815 53.5879 16.2988C53.5879 17.2181 53.0791 17.8632 52.0614 18.2234C51.7528 18.3471 51.2007 18.4438 50.4049 18.5191L50.6214 17.1536C51.5471 16.9547 52.0127 16.6267 52.0127 16.1644C52.0127 15.7397 51.8178 15.0785 51.4226 14.1914C51.0274 13.299 50.8325 12.6485 50.8325 12.2292C50.8325 11.6916 51.0599 11.0411 51.5146 10.2669H49.8906V8.8584H54.2484V10.2669H53.1657Z" fill="#0C72BA"/>
<path d="M56.5081 10.2669V18.175H54.9328V10.2669H53.7852V8.8584H57.5528V10.2669H56.5081Z" fill="#0C72BA"/>
<path d="M60.4336 10.7652C60.2766 10.6577 60.1196 10.6147 59.968 10.6362C59.378 10.7329 59.0857 11.0286 59.0857 11.5232C59.0857 11.7759 59.1831 12.0071 59.378 12.2221C59.5729 12.4371 59.7894 12.5447 60.033 12.5447L60.2495 12.5124C60.6934 12.3672 60.9154 12.0931 60.9154 11.6845C60.9154 11.2974 60.7584 10.991 60.4336 10.7652ZM61.8086 19.0926C59.8327 17.4046 58.4902 16.3831 57.781 16.0444L57.7973 13.8564C60.5148 15.8294 62.2958 17.4046 63.1348 18.5819V20.2109L61.8086 19.0926ZM60.1034 13.9908C59.3726 13.9908 58.7879 13.7543 58.344 13.2919C57.9001 12.8242 57.6836 12.2275 57.6836 11.491C57.6836 10.8082 57.911 10.2437 58.3603 9.78676C58.815 9.3298 59.378 9.104 60.0492 9.104C60.9641 9.104 61.6299 9.57172 62.0359 10.5018C62.2146 10.8942 62.3012 11.2867 62.3012 11.6684C62.3012 12.3834 62.1117 12.9479 61.7274 13.3672C61.3538 13.7811 60.8125 13.9908 60.1034 13.9908Z" fill="#0C72BA"/>
<path d="M67.342 15.7641V12.1246C67.342 12.1246 65.2903 13.5116 65.0467 13.6567C65.5177 13.8879 67.0605 15.1674 67.342 15.7641ZM69.6806 13.9686C69.713 13.9686 69.7455 13.9686 69.778 13.9686C70.5629 13.9686 70.9527 13.6836 70.9527 13.1138C70.9527 12.4364 70.2706 12.0063 68.9119 11.8289V18.1726H67.5369C66.7682 16.5114 64.186 14.775 63.1791 14.7104L62.7677 13.1299L67.342 10.2591H62.4375V8.85059H72.3818V10.2591H68.9173C69.5669 10.2914 70.249 10.5387 70.9581 10.9257C71.9542 11.4741 72.4522 12.2214 72.4522 13.1622C72.4522 13.7105 72.2844 14.1836 71.9542 14.5868C71.624 14.99 71.1855 15.248 70.6496 15.3771C70.2923 15.4631 69.9675 15.4953 69.6806 15.4846V13.9686Z" fill="#0C72BA"/>
<path d="M81.9381 15.0078L77.1797 18.728L74.7979 15.8572L95.4606 0.0625L116.123 15.8572L113.747 18.728L108.983 15.0078H81.9381Z" fill="#0C72BA"/>
<path d="M82.2588 17.3594V33.7294C82.2588 35.2346 83.4984 36.4658 85.0142 36.4658H105.812C107.328 36.4658 108.568 35.2346 108.568 33.7294V17.3594H82.2588Z" fill="#E4A924"/>
<path d="M103.554 26.792C103.554 31.2326 99.9271 34.8292 95.4611 34.8292C90.9897 34.8292 87.3682 31.2326 87.3682 26.792C87.3682 22.3568 90.9897 18.7549 95.4611 18.7549C99.9326 18.7549 103.554 22.3514 103.554 26.792Z" fill="#0C72BA"/>
<path d="M100.678 27.8875C100.678 29.4465 99.9041 30.9195 98.3017 32.0324C97.6575 32.4786 97.2407 32.699 96.6885 32.8119C96.4395 32.8657 95.9523 32.9517 95.0699 32.8334C94.6802 32.7796 94.1605 32.5807 93.722 32.1829C93.2781 31.7851 93.132 31.2529 93.1157 30.8765C93.0995 30.5056 93.0941 29.1777 93.0941 26.8929H91.9681L90.7393 25.6725H93.1915C93.2077 25.5865 93.2077 24.7855 93.1915 23.2641C93.1915 22.6889 92.8938 22.3986 92.2983 22.3986C92.0439 22.3986 91.8652 22.4416 91.7624 22.5222C91.6758 22.2857 91.5404 21.8932 91.351 21.3556C92.0872 21.0545 92.6881 20.9847 93.1644 21.1567C94.0522 21.4631 94.4853 22.0652 94.4691 22.9684C94.4474 23.5114 94.4582 24.0974 94.4961 24.7264C94.5124 25.1188 94.5124 25.4306 94.4961 25.6725H95.189L96.3908 26.8929H94.5015V30.3228C94.5015 31.0271 94.913 31.3819 95.7412 31.3819C96.7752 31.3819 97.598 30.8335 98.1989 29.7368C98.6103 28.9949 98.7943 28.5218 98.7402 28.3229C98.1285 28.3713 97.6305 28.2584 97.2569 27.9681C96.8834 27.6778 96.7264 27.237 96.7968 26.6295C96.8997 25.6349 97.4518 25.1403 98.4587 25.1403C99.9528 25.1457 100.678 26.0596 100.678 27.8875Z" fill="white"/>
<path d="M7.29179 34.5477L7.20517 34.5799V34.5477C7.20517 34.3272 7.04277 34.0423 6.6909 33.6929C6.33904 33.3434 6.05754 33.1821 5.83018 33.1821C5.56493 33.1821 5.17517 33.3219 4.63383 33.6122C4.08167 33.9079 3.66484 34.0477 3.36711 34.0477C2.52804 34.0477 1.81347 33.7466 1.24507 33.1499C0.860723 32.7467 0.443895 32.0747 0 31.064L0.844483 30.1608C1.39123 32.0048 2.20865 32.7843 3.34004 32.7843C3.55657 32.7843 3.92468 32.6714 4.43354 32.408C4.9478 32.1446 5.37005 32.0155 5.66237 32.0155C6.18746 32.0155 6.68549 32.2628 7.14021 32.7252V26.8277L6.58264 26.3062C6.13333 26.4084 5.69485 26.6557 5.27802 26.9997C4.76916 27.4083 4.53639 27.8115 4.53639 28.2147C4.53639 28.548 4.72586 28.7362 5.18058 28.7415C5.38629 28.6394 5.61365 28.462 5.94386 28.1502L6.45272 29.005C6.10626 29.5533 5.6353 29.806 5.00735 29.806C4.07084 29.806 3.31297 29.1232 3.31297 28.1771C3.31297 27.3599 3.70815 26.6395 4.48226 26.0374C5.20223 25.4729 5.98717 25.1719 6.83706 25.1719C7.19976 25.1719 7.50832 25.3063 7.78981 25.5805C7.91974 25.7095 8.12544 25.989 8.42318 26.3922V34.6175H7.25389L7.29179 34.5477Z" fill="#0C72BA"/>
<path d="M10.6613 34.5154C9.73019 33.5585 9.27547 32.365 9.27547 30.9618C9.27547 30.1178 9.54073 29.2523 10.0604 28.3921C10.3798 27.8706 10.9265 27.1718 11.6952 26.2901H8.57715V25.1719H14.023V26.2578C13.1027 26.618 12.3232 27.2148 11.6411 28.0911C10.9103 29.0157 10.5476 29.9028 10.5476 30.7629C10.5476 32.951 11.4516 33.9993 13.2326 33.9993C13.4654 33.9993 13.7252 33.8972 14.18 33.537V34.9025C13.8443 35.0799 13.4925 35.1444 13.1568 35.1444C11.9226 35.1444 11.0781 34.9509 10.6613 34.5154Z" fill="#0C72BA"/>
<path d="M19.3771 26.2925C19.7127 27.2495 20.4544 27.7441 21.6453 27.7441C21.8077 27.7441 21.9701 27.7279 22.1921 27.7011L23.069 28.7763C22.3978 30.1364 22.1163 31.0879 22.1163 31.6954C22.1163 33.0878 22.2895 33.9802 22.6738 34.5286L21.7482 35.0124C21.1635 34.1845 20.9145 33.3136 20.9145 32.3244C20.9145 31.7438 20.9903 31.1632 21.1094 30.5987C21.1635 30.3783 21.3043 29.8407 21.5749 28.9698C20.7683 28.8623 20.043 28.5773 19.3988 28.1419C18.668 27.6527 18.2024 27.0506 18.0292 26.3302C16.979 27.1151 16.481 27.9537 16.481 28.8246C16.481 29.4052 16.6975 29.6418 17.1252 29.6418C17.634 29.6418 18.2999 29.2655 18.5597 28.8031H19.7885C20.07 29.2278 20.1945 29.873 20.1945 30.6901C20.1945 32.8513 19.0361 33.9426 16.757 33.9426C16.3348 33.9426 15.8205 33.819 15.3442 33.6416C14.7162 33.4104 14.2831 32.7868 14.2344 32.733C13.888 32.2868 13.6823 31.9642 13.4874 31.604C13.2979 31.2438 13.1247 30.846 12.7836 30.1794L13.6011 29.4375C13.9204 30.3407 14.3048 31.3352 15.1818 32.2492C15.4037 32.4857 15.7231 32.6094 16.0262 32.6685C16.3294 32.7276 16.5946 32.7276 16.7029 32.7276C17.3471 32.7276 17.856 32.5448 18.262 32.2438C18.7004 31.9105 18.9224 31.4374 18.9224 30.8406C18.9224 30.5826 18.852 30.3461 18.7329 30.1256C18.2241 30.6364 17.6611 30.8944 17.0548 30.8944C15.8422 30.8944 15.1709 29.9697 15.1709 28.7763C15.1709 28.0344 15.5228 27.1957 16.1832 26.2872H12.1016V25.1689H23.854V26.2872H19.3771V26.2925Z" fill="#0C72BA"/>
<path d="M27.6195 30.9672V30.2092C26.8562 29.1985 26.1471 28.7254 25.5029 28.7254C25.2214 28.7254 24.9778 28.8115 24.7991 28.9459C24.5934 29.1018 24.4906 29.2899 24.4906 29.5426C24.4906 29.8275 24.561 29.9942 24.68 30.0856C24.7667 30.1555 24.9561 30.2253 25.2376 30.2469L25.5732 30.0748L26.055 31.1393C25.6328 31.3597 25.3675 31.4403 25.1672 31.4403C24.1008 31.4403 23.2672 30.5963 23.2672 29.5372C23.2672 28.3652 24.2416 27.6664 25.4 27.6664C26.055 27.6664 26.6559 27.9137 27.1539 28.4513L27.6195 28.9459V26.2793H22.8828V25.1611H28.9079V30.8758L27.6195 30.9672Z" fill="#0C72BA"/>
<path d="M28.9595 26.2911V33.3122C29.1328 33.3175 29.4576 33.339 29.4576 33.339C30.2858 33.3874 31.1628 33.1455 32.1318 32.6402C33.2036 32.0757 33.7125 31.4144 33.7125 30.6134C33.7125 29.7102 33.2902 29.264 32.4403 29.264C32.2238 29.264 31.7961 29.4414 31.022 29.8715L30.4969 28.7264C31.2115 28.2049 31.9856 28.006 32.8896 28.006C33.588 28.006 34.1293 28.2533 34.5245 28.7856C34.8709 29.2479 35.0387 29.8285 35.0387 30.5274C35.0387 31.4897 34.584 32.3552 33.68 33.0864C32.9113 33.7207 32.0127 34.1454 30.9895 34.3497C30.275 34.4949 29.1923 34.5648 27.6549 34.5648V26.2911H26.7617V25.1729H33.3227L33.3498 24.9793C33.3389 24.3987 33.1008 23.9256 32.6136 23.5601C32.1642 23.2267 31.6229 23.0386 31.0112 23.0386C30.2479 23.0386 29.2031 23.388 27.7524 24.1676L27.3301 23.216C28.7159 22.3666 29.9339 21.958 31.1303 21.958C32.0939 21.958 32.9113 22.2913 33.5988 22.9149C34.2592 23.5117 34.6219 24.2643 34.649 25.1782H35.8886V26.2965H28.9595V26.2911Z" fill="#0C72BA"/>
<path d="M48.1946 26.2901V34.5799H47.0415C46.5056 33.7359 45.5583 32.9563 44.14 32.1876C42.7163 31.4188 41.5091 31.0264 40.4589 30.9941L40.0908 29.5695C40.7783 29.0426 41.861 28.4781 43.4092 27.8706C43.8639 27.6932 45.0278 27.2685 46.8845 26.5481V26.2901H39.3438V25.1719H49.3151V26.2901H48.1946ZM46.8845 27.9997C45.8614 28.3599 44.324 29.0319 42.267 29.9888C44.0534 30.6447 45.5962 31.5263 46.8845 32.6284V27.9997Z" fill="#0C72BA"/>
<path d="M52.0194 26.2925C51.4727 27.0882 51.1858 27.7441 51.1858 28.2494C51.1858 28.7494 51.3915 29.4805 51.7975 30.4536C52.2035 31.4266 52.4092 32.2008 52.4092 32.7491C52.4092 33.9964 51.4132 34.6791 49.4427 34.8995L49.6159 33.7706C50.6824 33.5555 51.1046 33.1523 51.1046 32.5986C51.1046 32.147 50.8989 31.4965 50.4766 30.5826C50.0544 29.6687 49.8487 28.9752 49.8487 28.5075C49.8487 27.943 50.141 27.1903 50.6824 26.2872H48.6523V25.1689H53.3024V26.2872H52.0194V26.2925Z" fill="#0C72BA"/>
<path d="M55.3497 26.2901V34.5638H54.0668V26.2901H52.708V25.1719H56.6002V26.2901H55.3497Z" fill="#0C72BA"/>
<path d="M56.8164 27.6896C56.8164 27.0338 57.0221 26.4854 57.4606 26.0446C57.9045 25.593 58.4567 25.3618 59.1171 25.3618C59.7937 25.3618 60.3459 25.6467 60.7573 26.1736C61.1254 26.6574 61.3095 27.2327 61.3095 27.9047C61.3095 29.2648 60.5462 30.1572 59.1766 30.1572C57.7421 30.1626 56.8164 29.1197 56.8164 27.6896ZM59.5989 34.1892C58.7219 33.4205 57.8395 32.813 56.9193 32.356L56.9463 30.512C59.6097 32.4582 61.3041 33.9634 62.1919 35.1569V36.4633L59.5989 34.1892ZM57.964 27.7434C57.964 28.3724 58.5054 28.9637 59.1171 28.9637C59.7017 28.9637 60.1727 28.496 60.1727 27.9262C60.1727 27.2757 59.7234 26.6467 59.1387 26.6467C58.4458 26.6413 57.964 27.0821 57.964 27.7434Z" fill="#0C72BA"/>
<path d="M72.345 23.8133C70.4558 22.6198 68.9292 22.0768 67.7004 22.0768C66.5852 22.0768 65.7245 22.3187 65.0803 22.8402C64.3982 23.3832 64.0518 24.1573 64.0301 25.168H65.1561V26.2862H64.003V34.5438H62.7038V26.2916H61.5508V25.1734H62.7201C62.7363 23.8079 63.2289 22.7381 64.1817 21.9639C65.0911 21.222 66.2712 20.8511 67.7166 20.8511C68.6369 20.8511 69.5463 21.0661 70.4774 21.4586C71.1054 21.722 71.9444 22.1843 73.0542 22.9101L72.345 23.8133Z" fill="#0C72BA"/>
<path d="M70.6763 26.2896V26.6605C71.5207 26.6767 72.3111 26.924 73.0419 27.397C73.9189 27.9508 74.3573 28.6497 74.3573 29.4991C74.3573 30.1926 74.0813 30.7571 73.5507 31.1925C73.0419 31.5903 72.441 31.7893 71.7373 31.7893C71.7048 31.7893 71.6615 31.7893 71.6182 31.7785C71.5749 31.7678 71.5316 31.7624 71.3854 31.7462V30.4829C71.6669 30.5098 71.8564 30.5098 72.0567 30.5098C72.7983 30.5098 73.1502 30.1765 73.1502 29.4668C73.1502 28.6389 72.3977 28.1067 70.6817 27.9347V34.5848H69.5124C68.9873 33.5687 68.3864 32.7731 67.6881 32.1441C66.8382 31.3753 65.9612 30.9829 64.9977 30.9506L64.6133 29.5421C65.3008 29.0582 66.8544 28.0906 69.3771 26.6767V26.3003H64.2344V25.1821H75.099V26.3003H70.6763V26.2896ZM69.3662 28.0906C68.944 28.2626 68.4893 28.5475 68.0183 28.9453C68.0183 28.9453 67.5961 29.2948 66.7462 30.0152C67.2388 30.3162 67.7097 30.7302 68.1591 31.2463C68.3702 31.4936 68.7762 31.9559 69.3716 32.6225V28.0906H69.3662Z" fill="#0C72BA"/>
<path d="M75.1953 27.6896C75.1953 27.0338 75.401 26.4854 75.8395 26.0446C76.2888 25.593 76.8356 25.3618 77.5014 25.3618C78.1781 25.3618 78.7302 25.6467 79.1416 26.1736C79.5098 26.6574 79.6938 27.2327 79.6938 27.9047C79.6938 29.2648 78.9305 30.1572 77.5609 30.1572C76.1264 30.1626 75.1953 29.1197 75.1953 27.6896ZM77.9832 34.1892C77.1062 33.4205 76.2238 32.813 75.3036 32.356L75.3306 30.512C77.994 32.4582 79.6884 33.9634 80.5762 35.1569V36.4633L77.9832 34.1892ZM76.3484 27.7434C76.3484 28.3724 76.8897 28.9637 77.5014 28.9637C78.086 28.9637 78.557 28.496 78.557 27.9262C78.557 27.2757 78.1131 26.6467 77.5285 26.6467C76.8301 26.6413 76.3484 27.0821 76.3484 27.7434Z" fill="#0C72BA"/>
</g>
<defs>
<clipPath id="clip0">
<rect width="116" height="36" fill="white" transform="translate(0 0.0625)"/>
</clipPath>
</defs>
</svg>
